HIERARCHY
ROOT joint_Root
{
	OFFSET 0.0 0.0 0.0
	CHANNELS 6 Xposition Yposition Zposition Zrotation Xrotation Yrotation 
	JOINT Hips
	{
		OFFSET -17.1583 93.1646 452.98
		CHANNELS 6 Xposition Yposition Zposition Zrotation Xrotation Yrotation 
		JOINT Spine
		{
			OFFSET 15.7357 0.0 0.0
			CHANNELS 6 Xposition Yposition Zposition Zrotation Xrotation Yrotation 
			JOINT Chest
			{
				OFFSET 8.98455 -0.406207 0.0
				CHANNELS 6 Xposition Yposition Zposition Zrotation Xrotation Yrotation 
				JOINT Neck
				{
					OFFSET 16.3773 0.0 0.0
					CHANNELS 6 Xposition Yposition Zposition Zrotation Xrotation Yrotation 
					JOINT Head
					{
						OFFSET 6.45672 0.0 0.0
						CHANNELS 6 Xposition Yposition Zposition Zrotation Xrotation Yrotation 
						End Site
						{
							OFFSET 0.0 0.0 0.0
						}
					}
				}
				JOINT Shoulder_L
				{
					OFFSET 12.9942 -0.242716 4.98039
					CHANNELS 6 Xposition Yposition Zposition Zrotation Xrotation Yrotation 
					JOINT UpperArm_L
					{
						OFFSET 5.34809 0.0 0.0
						CHANNELS 6 Xposition Yposition Zposition Zrotation Xrotation Yrotation 
						JOINT LowerArm_L
						{
							OFFSET 24.3286 1.87007e-05 0.0
							CHANNELS 6 Xposition Yposition Zposition Zrotation Xrotation Yrotation 
							JOINT Hand_L
							{
								OFFSET 22.2916 0.0 0.0
								CHANNELS 6 Xposition Yposition Zposition Zrotation Xrotation Yrotation 
								End Site
								{
									OFFSET 0.0 0.0 0.0
								}
							}
						}
					}
				}
				JOINT Shoulder_R
				{
					OFFSET 12.9945 -0.242716 -4.98039
					CHANNELS 6 Xposition Yposition Zposition Zrotation Xrotation Yrotation 
					JOINT UpperArm_R
					{
						OFFSET -5.34813 0.0 0.0
						CHANNELS 6 Xposition Yposition Zposition Zrotation Xrotation Yrotation 
						JOINT LowerArm_R
						{
							OFFSET -24.3289 0.000322201 0.0
							CHANNELS 6 Xposition Yposition Zposition Zrotation Xrotation Yrotation 
							JOINT Hand_R
							{
								OFFSET -22.2915 -0.000108084 0.0
								CHANNELS 6 Xposition Yposition Zposition Zrotation Xrotation Yrotation 
								End Site
								{
									OFFSET 0.0 0.0 0.0
								}
							}
						}
					}
				}
			}
		}
		JOINT UpperLeg_L
		{
			OFFSET -2.19248 -6.46944 0.0
			CHANNELS 6 Xposition Yposition Zposition Zrotation Xrotation Yrotation 
			JOINT LowerLeg_L
			{
				OFFSET 39.0811 0.0 -1.23785e-05
				CHANNELS 6 Xposition Yposition Zposition Zrotation Xrotation Yrotation 
				JOINT Foot_L
				{
					OFFSET 40.9854 0.0 -1.26872e-05
					CHANNELS 6 Xposition Yposition Zposition Zrotation Xrotation Yrotation 
					JOINT Toes_L
					{
						OFFSET 11.7543 0.0 0.0
						CHANNELS 6 Xposition Yposition Zposition Zrotation Xrotation Yrotation 
						End Site
						{
							OFFSET 0.0 0.0 0.0
						}
					}
				}
			}
		}
		JOINT UpperLeg_R
		{
			OFFSET -2.19251 6.46944 0.0
			CHANNELS 6 Xposition Yposition Zposition Zrotation Xrotation Yrotation 
			JOINT LowerLeg_R
			{
				OFFSET -39.0811 -0.00228153 -0.0401928
				CHANNELS 6 Xposition Yposition Zposition Zrotation Xrotation Yrotation 
				JOINT Foot_R
				{
					OFFSET -40.9854 0.0 0.0
					CHANNELS 6 Xposition Yposition Zposition Zrotation Xrotation Yrotation 
					JOINT Toes_R
					{
						OFFSET -11.7543 0.0 0.0
						CHANNELS 6 Xposition Yposition Zposition Zrotation Xrotation Yrotation 
						End Site
						{
							OFFSET 0.0 0.0 0.0
						}
					}
				}
			}
		}
	}
}
MOTION
Frames:	5
Frame Time:	0.0333333
0.000000 0.000000 0.000000 0.000000 0.000000 -0.000000 -5.235930 91.725700 -1.475370 83.644100 -2.866550 5.247180 15.735700 0.000005 -0.000001 59.122400 87.493600 -56.715700 8.984550 -0.406207 -0.000000 -3.402170 -2.805680 4.732090 16.377300 -0.000001 -0.000001 12.595200 2.480690 8.028090 6.456720 -0.000001 -0.000000 5.037710 5.247010 10.009100 12.994200 -0.242716 4.980390 -92.033900 5.924660 -71.014500 5.348090 -0.000007 -0.000001 -76.772700 26.168300 4.838080 24.328600 0.000019 0.000005 12.695300 29.150600 -24.819100 22.291600 -0.000001 0.000005 -3.655790 5.026230 6.756250 12.994500 -0.242716 -4.980390 87.824700 6.201680 -70.627800 -5.348130 -0.000001 -0.000004 -71.131800 2.502630 -6.519670 -24.328900 0.000322 -0.000009 18.482900 -21.817000 -138.030000 -22.291500 -0.000108 -0.000004 65.819100 5.680530 -19.804500 -2.192480 -6.469440 -0.000000 -170.655000 3.865080 -3.185060 39.081100 -0.000007 -0.000012 0.393608 -0.699663 29.361600 40.985400 -0.000006 -0.000013 -1.448370 4.447480 -76.570100 11.754300 -0.000000 0.000003 0.000975 0.149181 -10.526800 -2.192510 6.469440 -0.000001 -168.544000 6.386120 -176.072000 -39.081100 -0.002282 -0.040193 0.148820 -0.498079 16.283600 -40.985400 0.000008 0.000006 7.349990 3.510810 -71.453400 -11.754300 -0.000006 -0.000006 -0.013026 0.292675 -4.676010
0.000000 0.000000 0.000000 0.000000 0.000000 -0.000000 -5.220090 91.738700 -1.473750 83.677000 -2.680600 5.259650 15.735700 0.000005 -0.000001 59.640400 87.478200 -57.277400 8.984550 -0.406207 -0.000000 -3.354220 -2.777060 4.646660 16.377300 -0.000001 -0.000001 12.762700 2.433910 8.013390 6.456720 -0.000001 -0.000000 5.030340 5.131400 9.962480 12.994200 -0.242716 4.980390 -92.024400 5.906170 -71.041900 5.348090 -0.000007 -0.000001 -76.689400 26.246300 4.847730 24.328600 0.000019 0.000005 12.625900 28.948700 -24.834000 22.291600 -0.000001 0.000005 -3.519290 5.023590 6.813610 12.994500 -0.242716 -4.980390 87.804200 6.263840 -70.637600 -5.348130 -0.000001 -0.000004 -70.997700 2.474470 -6.642750 -24.328900 0.000322 -0.000009 18.703500 -21.850600 -137.709000 -22.291500 -0.000108 -0.000004 65.695300 5.679730 -19.493100 -2.192480 -6.469440 -0.000000 -170.684000 3.952090 -3.175900 39.081100 -0.000007 -0.000012 0.389836 -0.695001 29.289600 40.985400 -0.000006 -0.000013 -1.414380 4.571350 -76.587200 11.754300 -0.000000 0.000003 0.000842 0.151988 -10.412900 -2.192510 6.469440 -0.000001 -168.591000 6.464430 -176.034000 -39.081100 -0.002282 -0.040193 0.146103 -0.491497 16.198200 -40.985400 0.000008 0.000006 7.298670 3.437550 -71.427300 -11.754300 -0.000006 -0.000006 -0.012530 0.289323 -4.813360
0.000000 0.000000 0.000000 0.000000 0.000000 -0.000000 -5.208120 91.738600 -1.481900 83.676400 -2.482930 5.209950 15.735700 0.000005 -0.000001 59.966600 87.470300 -57.625800 8.984550 -0.406207 -0.000000 -3.327050 -2.757480 4.603390 16.377300 -0.000001 -0.000001 12.848500 2.388030 7.968570 6.456720 -0.000001 -0.000000 5.094460 4.912480 9.898500 12.994200 -0.242716 4.980390 -92.037800 5.939020 -71.023100 5.348090 -0.000007 -0.000001 -76.538400 26.310000 4.793290 24.328600 0.000019 0.000005 12.684900 29.035900 -24.879200 22.291600 -0.000001 0.000005 -3.510970 5.025070 6.781710 12.994500 -0.242716 -4.980390 87.805000 6.254090 -70.616100 -5.348130 -0.000001 -0.000004 -70.917800 2.423520 -6.788860 -24.328900 0.000322 -0.000009 18.599200 -21.541300 -137.493000 -22.291500 -0.000108 -0.000004 65.444500 5.680100 -19.626900 -2.192480 -6.469440 -0.000000 -170.699000 4.081540 -3.305360 39.081100 -0.000007 -0.000012 0.390959 -0.696266 29.315500 40.985400 -0.000006 -0.000013 -1.395400 4.596650 -76.502900 11.754300 -0.000000 0.000003 0.000952 0.149671 -10.506900 -2.192510 6.469440 -0.000001 -168.610000 6.660120 -176.107000 -39.081100 -0.002282 -0.040193 0.145595 -0.490169 16.185000 -40.985400 0.000008 0.000006 7.286770 3.423400 -71.397700 -11.754300 -0.000006 -0.000006 -0.012470 0.288916 -4.830050
0.000000 0.000000 0.000000 0.000000 0.000000 -0.000000 -5.191800 91.741600 -1.476030 83.660200 -2.286930 5.194070 15.735700 0.000005 -0.000001 60.719200 87.456900 -58.402300 8.984550 -0.406207 -0.000000 -3.272370 -2.709450 4.558150 16.377300 -0.000001 -0.000001 12.980800 2.315840 7.907180 6.456720 -0.000001 -0.000000 5.030810 4.749030 9.814730 12.994200 -0.242716 4.980390 -92.040200 5.934280 -70.988600 5.348090 -0.000007 -0.000001 -76.404100 26.283800 4.709530 24.328600 0.000019 0.000005 12.731300 29.105800 -24.913800 22.291600 -0.000001 0.000005 -3.523760 5.024580 6.792160 12.994500 -0.242716 -4.980390 87.806100 6.248430 -70.608600 -5.348130 -0.000001 -0.000004 -70.970000 2.245370 -6.847670 -24.328900 0.000322 -0.000009 18.455100 -21.285500 -137.407000 -22.291500 -0.000108 -0.000004 65.294900 5.679340 -19.357000 -2.192480 -6.469440 -0.000000 -170.695000 4.174530 -3.369720 39.081100 -0.000007 -0.000012 0.395516 -0.703841 29.334300 40.985400 -0.000006 -0.000013 -1.369650 4.659360 -76.541000 11.754300 -0.000000 0.000003 0.000827 0.152301 -10.400200 -2.192510 6.469440 -0.000001 -168.621000 6.799470 -176.132000 -39.081100 -0.002282 -0.040193 0.144267 -0.486132 16.168100 -40.985400 0.000008 0.000006 7.212530 3.447570 -71.412000 -11.754300 -0.000006 -0.000006 -0.012515 0.289228 -4.817300
0.000000 0.000000 0.000000 0.000000 0.000000 -0.000000 -5.159170 91.742800 -1.478400 83.666100 -2.106900 5.125480 15.735700 0.000005 -0.000001 61.338800 87.456200 -59.045600 8.984550 -0.406207 -0.000000 -3.246080 -2.659240 4.512820 16.377300 -0.000001 -0.000001 13.056900 2.262500 7.794480 6.456720 -0.000001 -0.000000 4.935940 4.607700 9.770170 12.994200 -0.242716 4.980390 -92.059300 5.965210 -70.914800 5.348090 -0.000007 -0.000001 -76.233700 26.205200 4.621740 24.328600 0.000019 0.000005 12.742700 29.112300 -24.929700 22.291600 -0.000001 0.000005 -3.482160 5.025340 6.775860 12.994500 -0.242716 -4.980390 87.815300 6.203950 -70.556800 -5.348130 -0.000001 -0.000004 -71.090600 2.046940 -6.876060 -24.328900 0.000322 -0.000009 18.410200 -21.097800 -137.240000 -22.291500 -0.000108 -0.000004 65.245000 5.677660 -18.872800 -2.192480 -6.469440 -0.000000 -170.718000 4.272700 -3.499820 39.081100 -0.000007 -0.000012 0.397059 -0.706118 29.350500 40.985400 -0.000006 -0.000013 -1.333000 4.720680 -76.495000 11.754300 -0.000000 0.000003 0.000878 0.151238 -10.443300 -2.192510 6.469440 -0.000001 -168.641000 6.947150 -176.223000 -39.081100 -0.002282 -0.040193 0.144753 -0.488309 16.152400 -40.985400 0.000008 0.000006 7.205530 3.369330 -71.373900 -11.754300 -0.000006 -0.000006 -0.012433 0.288662 -4.840460
